<?xml version="1.0" standalone="no"?><!DOCTYPE svg PUBLIC "-//W3C//DTD SVG 1.1//EN" "http://www.w3.org/Graphics/SVG/1.1/DTD/svg11.dtd"><svg t="1606355656575" class="icon" viewBox="0 0 1024 1024" version="1.1" xmlns="http://www.w3.org/2000/svg" p-id="1659" xmlns:xlink="http://www.w3.org/1999/xlink" width="128" height="128"><defs><style type="text/css"></style></defs><path d="M840.96 179.2H537.6c0 14.08-11.52 25.6-25.6 25.6s-25.6-11.52-25.6-25.6H183.04C154.88 179.2 132.266667 201.813333 132.266667 229.973333v658.346667c0 28.16 22.613333 50.773333 50.773333 50.773333h658.346667c28.16 0 50.773333-22.613333 50.773333-50.773333V229.973333c-0.426667-28.16-23.04-50.773333-51.2-50.773333zM554.666667 763.733333H332.8c-18.773333 0-34.133333-15.36-34.133333-34.133333s15.36-34.133333 34.133333-34.133333h221.866667c18.773333 0 34.133333 15.36 34.133333 34.133333s-15.36 34.133333-34.133333 34.133333z m136.533333-170.666666H332.8c-18.773333 0-34.133333-15.36-34.133333-34.133334s15.36-34.133333 34.133333-34.133333h358.4c18.773333 0 34.133333 15.36 34.133333 34.133333s-15.36 34.133333-34.133333 34.133334z m0-170.666667H332.8c-18.773333 0-34.133333-15.36-34.133333-34.133333s15.36-34.133333 34.133333-34.133334h358.4c18.773333 0 34.133333 15.36 34.133333 34.133334s-15.36 34.133333-34.133333 34.133333z" fill="#ffffff" p-id="1660"></path><path d="M512 85.333333c-52.053333 0-93.866667 41.813333-93.866667 93.866667s41.813333 93.866667 93.866667 93.866667 93.866667-41.813333 93.866667-93.866667-41.813333-93.866667-93.866667-93.866667z m0 119.466667c-14.08 0-25.6-11.52-25.6-25.6s11.52-25.6 25.6-25.6 25.6 11.52 25.6 25.6-11.52 25.6-25.6 25.6z" fill="#ffffff" p-id="1661"></path></svg>