<?xml version="1.0" standalone="no"?><!DOCTYPE svg PUBLIC "-//W3C//DTD SVG 1.1//EN" "http://www.w3.org/Graphics/SVG/1.1/DTD/svg11.dtd"><svg t="1606355702866" class="icon" viewBox="0 0 1024 1024" version="1.1" xmlns="http://www.w3.org/2000/svg" p-id="1142" xmlns:xlink="http://www.w3.org/1999/xlink" width="128" height="128"><defs><style type="text/css"></style></defs><path d="M320 384l128 0 0 128-128 0zM512 384l128 0 0 128-128 0zM704 384l128 0 0 128-128 0zM128 768l128 0 0 128-128 0zM320 768l128 0 0 128-128 0zM512 768l128 0 0 128-128 0zM320 576l128 0 0 128-128 0zM512 576l128 0 0 128-128 0zM704 576l128 0 0 128-128 0zM128 576l128 0 0 128-128 0zM832 0l0 64-128 0 0-64-448 0 0 64-128 0 0-64-128 0 0 1024 960 0 0-1024-128 0zM896 960l-832 0 0-704 832 0 0 704z" p-id="1143" fill="#ffffff"></path></svg>