<?xml version="1.0" standalone="no"?><!DOCTYPE svg PUBLIC "-//W3C//DTD SVG 1.1//EN" "http://www.w3.org/Graphics/SVG/1.1/DTD/svg11.dtd"><svg t="1609982554820" class="icon" viewBox="0 0 1024 1024" version="1.1" xmlns="http://www.w3.org/2000/svg" p-id="2564" xmlns:xlink="http://www.w3.org/1999/xlink" width="128" height="128"><defs><style type="text/css"></style></defs><path d="M535.645091 542.952727c-57.344 0-61.765818 41.984-160.209455 41.984-96.162909 0-103.424-41.984-160.256-41.984-53.434182 0-90.437818 30.999273-112.034909 58.833455-32.395636 41.751273-60.462545 110.824727-56.180363 159.650909 3.490909 39.703273 23.133091 122.926545 328.471272 122.926545 314.368 0 324.421818-88.576 327.121455-124.741818 3.258182-44.683636-18.525091-123.345455-64.512-169.518545-31.557818-31.976727-63.720727-47.150545-102.4-47.150546z m414.813091 93.835637c-22.993455-36.584727-55.947636-78.754909-100.352-76.334546-30.487273 1.768727-35.607273 22.807273-125.021091 26.810182a13.312 13.312 0 0 0-10.612364 20.386909c32.954182 52.642909 48.128 118.458182 45.056 159.790546a103.144727 103.144727 0 0 1-2.792727 21.317818 24.017455 24.017455 0 0 0 24.994909 29.463272 441.250909 441.250909 0 0 0 94.021818-17.035636c64.046545-19.316364 91.694545-36.864 99.141818-56.552727 7.447273-19.688727-1.396364-71.354182-24.436363-107.845818zM375.342545 501.992727c47.848727 0 93.742545-19.083636 127.534546-53.061818a181.666909 181.666909 0 0 0 52.922182-128.139636C555.752727 220.718545 474.996364 139.636364 375.389091 139.636364 275.781818 139.636364 195.072 220.765091 195.025455 320.837818c0 100.072727 80.756364 181.201455 180.31709 181.248v-0.093091z m370.036364 20.48A127.534545 127.534545 0 0 0 872.727273 394.705455a127.534545 127.534545 0 0 0-127.255273-127.813819 127.534545 127.534545 0 0 0-127.208727 127.813819 127.534545 127.534545 0 0 0 127.208727 127.860363v-0.139636z" p-id="2565" fill="#ffffff"></path></svg>