<?xml version="1.0" standalone="no"?><!DOCTYPE svg PUBLIC "-//W3C//DTD SVG 1.1//EN" "http://www.w3.org/Graphics/SVG/1.1/DTD/svg11.dtd"><svg t="1608103848834" class="icon" viewBox="0 0 1024 1024" version="1.1" xmlns="http://www.w3.org/2000/svg" p-id="2638" width="128" height="128" xmlns:xlink="http://www.w3.org/1999/xlink"><defs><style type="text/css"></style></defs><path d="M371.2 6.4l1.6 0.8 285.6 195.2 276.8-178.4c6.4-4 14.4-6.4 22.4-6.4 27.2 0 48.8 20.8 50.4 47.2v685.6c0 15.2-7.2 29.6-20 39.2l-1.6 1.6-304.8 208.8c-13.6 8.8-31.2 9.6-44.8 0.8l-1.6-0.8-304.8-208.8c-12.8-8.8-20.8-23.2-21.6-38.4V259.2c0-22.4 18.4-40 40.8-40 21.6 0 40 16.8 40.8 38.4v476.8l268 183.2 268-183.2v-608.8L699.2 272v474.4c0 22.4-18.4 40-40.8 40-21.6 0-40-16.8-40.8-38.4V272l-268-183.2-268 183.2v616l145.6-75.2c19.2-9.6 43.2-3.2 54.4 15.2l0.8 1.6c10.4 19.2 3.2 42.4-15.2 52.8l-1.6 0.8-196 100.8c-5.6 3.2-12 4.8-19.2 4.8-27.2 0-48.8-20.8-50.4-47.2V256c0-15.2 7.2-29.6 20-39.2l1.6-1.6 304.8-208.8c12.8-8 30.4-8.8 44.8 0z" p-id="2639" fill="#1296db"></path></svg>