<?xml version="1.0" standalone="no"?><!DOCTYPE svg PUBLIC "-//W3C//DTD SVG 1.1//EN" "http://www.w3.org/Graphics/SVG/1.1/DTD/svg11.dtd"><svg t="1606352335319" class="icon" viewBox="0 0 1024 1024" version="1.1" xmlns="http://www.w3.org/2000/svg" p-id="1276" xmlns:xlink="http://www.w3.org/1999/xlink" width="128" height="128"><defs><style type="text/css"></style></defs><path d="M834.844444 113.777778C909.795556 113.777778 967.111111 172.942222 967.111111 250.311111v637.155556c0 77.368889-57.315556 136.533333-132.266667 136.533333H217.6C142.648889 1024 85.333333 964.835556 85.333333 887.466667V250.311111C85.333333 172.942222 142.648889 113.777778 217.6 113.777778h145.493333c4.408889-13.653333 8.817778-22.755556 13.226667-36.408889C402.773333 40.96 446.862222 0 521.813333 0c74.951111 0 119.04 40.96 145.493334 77.368889 13.226667 13.653333 17.635556 22.755556 22.044444 36.408889h145.493333zM526.222222 530.972444c27.022222 0 45.027556-18.033778 45.027556-45.056 0-27.022222-18.005333-45.027556-45.027556-45.027555h-225.194666c-27.022222 0-45.027556 18.005333-45.027556 45.027555s18.005333 45.056 45.027556 45.056H526.222222zM751.416889 711.111111c27.022222 0 45.027556-18.005333 45.027555-45.027555s-18.005333-45.056-45.027555-45.056H301.027556c-27.022222 0-45.027556 18.033778-45.027556 45.056 0 27.022222 18.005333 45.027556 45.027556 45.027555h450.389333zM526.222222 283.249778c27.022222 0 45.027556-18.005333 45.027556-45.027556v-22.528C571.249778 188.672 553.244444 170.666667 526.222222 170.666667s-45.027556 18.005333-45.027555 45.027555v22.528c0 27.022222 18.005333 45.027556 45.027555 45.027556z" p-id="1277" fill="#ffffff"></path></svg>