<?xml version="1.0" standalone="no"?><!DOCTYPE svg PUBLIC "-//W3C//DTD SVG 1.1//EN" "http://www.w3.org/Graphics/SVG/1.1/DTD/svg11.dtd"><svg t="1606355810747" class="icon" viewBox="0 0 1117 1024" version="1.1" xmlns="http://www.w3.org/2000/svg" p-id="1312" xmlns:xlink="http://www.w3.org/1999/xlink" width="139.625" height="128"><defs><style type="text/css"></style></defs><path d="M225.512727 905.588364c-120.692364 0-224.814545-98.769455-224.814545-224.814546 0-120.738909 98.722909-224.861091 224.814545-224.861091h38.353455c21.922909 0 38.353455 16.430545 38.353454 38.353455a37.422545 37.422545 0 0 1-38.353454 38.353454h-38.353455a147.549091 147.549091 0 0 0-148.107636 148.107637 147.549091 147.549091 0 0 0 148.107636 148.154182c21.922909 0 38.353455 16.430545 38.353455 38.353454a37.376 37.376 0 0 1-38.353455 38.353455z m104.261818-43.892364L220.16 976.896v-224.814545l109.661091 109.614545zM872.727273 516.189091h-38.353455a37.422545 37.422545 0 0 1-38.353454-38.353455c0-21.922909 16.384-38.353455 38.353454-38.353454h38.353455a147.549091 147.549091 0 0 0 148.107636-148.107637 147.549091 147.549091 0 0 0-148.107636-148.154181 37.422545 37.422545 0 0 1-38.353455-38.353455c0-21.922909 16.384-38.353455 38.353455-38.353454 120.692364 0 224.814545 98.769455 224.814545 224.814545 0.139636 126.138182-98.629818 224.861091-224.814545 224.861091z m-104.168728-400.430546L878.219636 0.605091v224.814545l-109.661091-109.661091zM620.450909 609.419636h-137.122909c-54.923636 0-104.261818-49.338182-104.261818-104.261818 0-54.923636 49.338182-104.261818 104.261818-104.261818h137.076364c54.923636 0 104.261818 49.338182 104.261818 104.261818 0 54.923636-49.338182 104.261818-104.261818 104.261818z" fill="#ffffff" p-id="1313"></path><path d="M620.450909 225.419636h-137.122909c-54.923636 0-104.261818-49.338182-104.261818-104.261818 0-54.923636 49.338182-104.261818 104.261818-104.261818h137.076364c54.923636 0 104.261818 49.338182 104.261818 104.261818 0 60.416-49.338182 104.261818-104.261818 104.261818zM620.450909 982.388364h-137.122909c-54.923636 0-104.261818-49.338182-104.261818-104.261819 0-54.923636 49.338182-104.261818 104.261818-104.261818h137.076364c54.923636 0 104.261818 49.338182 104.261818 104.261818 0 54.923636-49.338182 104.261818-104.261818 104.261819z" fill="#ffffff" p-id="1314"></path></svg>