<?xml version="1.0" standalone="no"?><!DOCTYPE svg PUBLIC "-//W3C//DTD SVG 1.1//EN" "http://www.w3.org/Graphics/SVG/1.1/DTD/svg11.dtd"><svg t="1607063353704" class="icon" viewBox="0 0 1024 1024" version="1.1" xmlns="http://www.w3.org/2000/svg" p-id="6565" xmlns:xlink="http://www.w3.org/1999/xlink" width="128" height="128"><defs><style type="text/css"></style></defs><path d="M786.022108 741.563958a35.652113 35.652113 0 1 0 35.652113 35.652113 35.652113 35.652113 0 0 0-35.723418-35.652113z" fill="#ffffff" p-id="6566"></path><path d="M786.022108 553.463408A223.895272 223.895272 0 1 0 1009.846075 777.216071a224.53701 224.53701 0 0 0-223.823967-223.752663z m124.49718 241.721328v0.49913a25.598217 25.598217 0 0 1-18.03997 18.824316l-3.636515 0.926955a26.881693 26.881693 0 0 0-18.396491 31.659076l1.140868 3.779125a25.81213 25.81213 0 0 1-7.130423 25.027783 122.358053 122.358053 0 0 1-14.902583 9.768679 127.70587 127.70587 0 0 1-15.972147 8.057378h-0.49913a26.881693 26.881693 0 0 1-7.130422 1.140867 25.526913 25.526913 0 0 1-17.897361-7.130422l-2.281736-2.424344a26.810389 26.810389 0 0 0-36.650372 0l-2.281735 2.424344a25.598217 25.598217 0 0 1-18.467795 7.700856 23.459091 23.459091 0 0 1-7.772161-1.35478 171.130144 171.130144 0 0 1-30.803426-17.754753l-0.427825-0.427825a25.954739 25.954739 0 0 1-7.130423-25.027783l1.069564-3.565212a26.667781 26.667781 0 0 0-2.923474-19.537358 26.31126 26.31126 0 0 0-15.401713-12.335631l-3.279994-0.784347a25.598217 25.598217 0 0 1-18.539099-19.466054 159.008426 159.008426 0 0 1 0-35.652113v-0.570434a25.455609 25.455609 0 0 1 17.968665-18.824316l3.779124-0.85565a27.095606 27.095606 0 0 0 18.325186-31.730381l-1.140867-3.70782a25.740826 25.740826 0 0 1 7.130422-25.027784 102.820695 102.820695 0 0 1 14.902584-9.839983 118.721537 118.721537 0 0 1 15.972147-8.057377h0.499129a26.739085 26.739085 0 0 1 7.130423-1.069564 25.526913 25.526913 0 0 1 17.897361 7.130423l2.638256 2.780865a26.952998 26.952998 0 0 0 18.325186 7.130422 26.453868 26.453868 0 0 0 18.253883-7.130422l2.566952-2.709561a25.526913 25.526913 0 0 1 17.826056-7.130423 26.382564 26.382564 0 0 1 7.130423 1.069564H833.439418a117.152845 117.152845 0 0 1 15.473018 7.914769 102.678086 102.678086 0 0 1 14.831279 9.697375h0.427825a25.81213 25.81213 0 0 1 7.130423 24.956479v0.427825l-1.212172 3.422603a26.881693 26.881693 0 0 0 18.253882 31.587773l3.636516 0.855651a25.669522 25.669522 0 0 1 18.039969 18.824315l0.998259 12.763457v5.56173a120.218926 120.218926 0 0 1-0.499129 18.182577z" fill="#ffffff" p-id="6567"></path><path d="M780.959508 495.350463a267.462154 267.462154 0 0 1 172.770141 63.246849V133.410208A132.76847 132.76847 0 0 0 820.961179 0H147.564062A133.695425 133.695425 0 0 0 14.153853 133.410208v777.929114c2.353039 94.620709 112.232853 145.745839 187.458812 88.773762l192.521413-146.316273 49.342524-37.648632a67.525103 67.525103 0 0 1 49.912959-12.906065 72.017269 72.017269 0 0 1 22.460832 7.772161 265.037811 265.037811 0 0 1-4.135646-46.632965 269.815194 269.815194 0 0 1 269.244761-269.030847zM171.66489 178.617088h645.731077a42.782536 42.782536 0 1 1-0.570433 85.565072H171.66489a42.782536 42.782536 0 1 1 0-85.565072z m0 342.616809a42.782536 42.782536 0 0 1 0-85.565072h400.729754a42.782536 42.782536 0 0 1 0 85.565072z" fill="#ffffff" p-id="6568"></path></svg>