<?xml version="1.0" standalone="no"?><!DOCTYPE svg PUBLIC "-//W3C//DTD SVG 1.1//EN" "http://www.w3.org/Graphics/SVG/1.1/DTD/svg11.dtd"><svg t="1609903203609" class="icon" viewBox="0 0 1024 1024" version="1.1" xmlns="http://www.w3.org/2000/svg" p-id="5583" xmlns:xlink="http://www.w3.org/1999/xlink" width="128" height="128"><defs><style type="text/css"></style></defs><path d="M842.149495 798.513131c-48.614141 0-88.048485 39.434343-88.048485 88.048485 0 48.614141 39.434343 88.048485 88.048485 88.048485 48.614141 0 88.048485-39.434343 88.048485-88.048485 0-48.484848-39.434343-88.048485-88.048485-88.048485z m0 132.266667c-24.307071 0-44.088889-19.652525-44.088889-44.088889 0-24.307071 19.652525-44.088889 44.088889-44.088889 24.307071 0 44.088889 19.652525 44.088889 44.088889 0 24.307071-19.781818 44.088889-44.088889 44.088889zM379.668687 798.513131c-48.614141 0-88.048485 39.434343-88.048485 88.048485 0 48.614141 39.434343 88.048485 88.048485 88.048485 48.614141 0 88.048485-39.434343 88.048485-88.048485 0-48.484848-39.434343-88.048485-88.048485-88.048485z m0 132.266667c-24.307071 0-44.088889-19.652525-44.088889-44.088889 0-24.307071 19.652525-44.088889 44.088889-44.088889s44.088889 19.652525 44.088889 44.088889c-0.129293 24.307071-19.781818 44.088889-44.088889 44.088889z m588.412121-371.717172s50.294949-287.806061 50.29495-289.09899c0-48.614141-39.434343-88.048485-88.048485-88.048484H190.513131L177.325253 112.614141C166.464646 76.282828 133.107071 49.648485 93.284848 49.648485h-66.068686c-12.153535 0-21.979798 9.826263-21.979798 21.979798s9.826263 21.979798 21.979798 21.979798H93.284848c21.20404 0.129293 38.787879 14.99798 43.054546 34.909091l96.969697 549.753535c0.387879 3.10303 2.585859 12.282828 2.585858 12.282828 9.955556 34.779798 40.468687 61.155556 77.705051 64h616.727273c12.153535 0 21.979798-9.826263 21.979798-21.979798s-9.826263-21.979798-21.979798-21.979798H320.193939c-20.040404 0-36.719192-13.446465-42.149495-31.80606l-9.955555-56.371717h615.822222c40.080808 0 73.438384-26.892929 84.169697-63.353536z m-707.749495 19.264647l-62.060606-352.452526h732.056566c24.307071 0 44.088889 19.652525 44.088889 44.088889 0 8.016162-48.484848 277.333333-48.484849 277.333334-5.559596 17.971717-22.109091 31.030303-41.890909 31.030303H260.331313z m0 0" fill="#ffffff" p-id="5584"></path><path d="M179.911111 209.454545h765.414142l45.252525 51.717172-56.888889 309.010101-74.989899 36.20202H249.729293zM341.527273 929.616162l-16.808081-78.868687 72.40404-31.030303-72.40404 37.494949" fill="#ffffff" p-id="5585"></path><path d="M336.355556 833.939394l-21.979798 62.060606 37.494949 45.252525h64.646465l28.444444-53.656565-25.858586-53.656566zM836.719192 819.717172l-53.010101 29.737373v51.717172l53.010101 40.080808 54.30303-11.636363 10.343435-60.767677z" fill="#ffffff" p-id="5586"></path></svg>