<?xml version="1.0" standalone="no"?><!DOCTYPE svg PUBLIC "-//W3C//DTD SVG 1.1//EN" "http://www.w3.org/Graphics/SVG/1.1/DTD/svg11.dtd"><svg t="1609902977702" class="icon" viewBox="0 0 1024 1024" version="1.1" xmlns="http://www.w3.org/2000/svg" p-id="2868" xmlns:xlink="http://www.w3.org/1999/xlink" width="128" height="128"><defs><style type="text/css"></style></defs><path d="M905.2 412.68l-70.88-236.34c-6.86-22.88-20.72-42.5-40.08-56.75-19.26-14.17-42.13-21.66-66.13-21.66H295.89c-24.01 0-46.88 7.49-66.13 21.66-19.36 14.24-33.22 33.87-40.08 56.75L118.8 412.68c-0.89 2.98-1.35 6.08-1.35 9.19 0 83.24 68.57 150.96 152.85 150.96 49.1 0 92.87-22.98 120.85-58.63 27.98 35.65 71.75 58.63 120.85 58.63 49.1 0 92.87-22.98 120.85-58.63 27.98 35.65 71.75 58.63 120.85 58.63 84.28 0 152.85-67.72 152.85-150.96 0-3.12-0.45-6.21-1.35-9.19z m-164.1-61.05H282.9c-17.67 0-32-14.33-32-32s14.33-32 32-32h458.2c17.67 0 32 14.33 32 32s-14.33 32-32 32zM645.17 578.37c-30.84 40.12-79.06 65.99-133.17 65.99-54.11 0-102.33-25.87-133.17-65.99-30.84 40.12-79.06 65.99-133.17 65.99-28.77 0-55.88-7.32-79.6-20.21v158.76c0 59.87 38.26 108.41 85.46 108.41h520.95c47.2 0 85.46-48.54 85.46-108.41V624.15c-23.72 12.88-50.82 20.21-79.6 20.21-54.1 0-102.32-25.87-133.16-65.99z" p-id="2869" fill="#ffffff"></path></svg>