<?xml version="1.0" standalone="no"?><!DOCTYPE svg PUBLIC "-//W3C//DTD SVG 1.1//EN" "http://www.w3.org/Graphics/SVG/1.1/DTD/svg11.dtd"><svg t="1609908310177" class="icon" viewBox="0 0 1024 1024" version="1.1" xmlns="http://www.w3.org/2000/svg" p-id="6991" xmlns:xlink="http://www.w3.org/1999/xlink" width="128" height="128"><defs><style type="text/css"></style></defs><path d="M562.85 731.846c-2.981-62.122 32.379-138.162 144.531-175.512-22.598-13.787-41.321-24.656-59.467-36.423-19.418-12.602-35.923-12.253-57.103 0.427-67.448 40.38-139.76 53.748-215.839 26.214a672.439 672.439 0 0 1-75.336-32.894c-14.767-7.5-26.33-6.325-40.52 1.223-110.706 58.9-174.207 151.27-193.333 274.034-11.777 75.565 4.238 101.157 75.705 130.308a458.479 458.479 0 0 0 90.856 24.904c102.39 18.815 205.731 21.277 309.16 14.243a876.403 876.403 0 0 0 215.82-41.38c-109.357-19.495-188.79-66.56-194.475-185.149z" p-id="6992" fill="#ffffff"></path><path d="M449.202 512.474c125.303-0.107 226.863-99.75 227.445-223.155a224.106 224.106 0 1 0-448.192-3.199c-0.412 124.76 98.769 226.46 220.747 226.354zM950.196 700.919c5.582-3.593 14.33-3.874 10.64-15.064a223.198 223.198 0 0 0-17.14-42.525c-3.005-5.199-5.617-7.155-13.137-5.014-34.515 9.84-50.462-5.17-43.02-40.802 1.782-8.534 0.165-11.772-6.577-14.733-8.87-3.898-17.651-7.99-26.554-11.811-11.782-5.054-20.486-8.476-28.253 8.781-8.724 19.36-39.564 23.739-48.569 6.787-15.758-29.646-32.229-14.044-50.137-6.583-12.621 5.258-17.854 11.156-13.296 27.137a28.272 28.272 0 0 1-32.739 36.282c-20.815-4.165-29.015 3.092-34.16 20.82-4.408 15.21-15.913 29.142 7.014 42.064 16.035 9.04 19.253 31.797 4.175 41.457-29 18.593-13.81 36.778-5.68 56.108 4.263 10.136 8.87 16.651 23.695 11.437 18.583-6.534 42.142 11.185 37.52 29.253-8.612 33.651 16.816 33.744 34.807 42.224 8.98 4.233 14.495 3.792 20.85-7.145 11.859-20.418 33.092-22.5 49.33-8.923 7.88 6.588 7.573 25.03 26.409 16.99 11.058-4.723 22.495-8.62 33.384-13.98 7.645-3.762 7.02-8.486 5.607-15.729-5.471-28.073 8.917-43.835 34.903-41.19 32.467 8.505 26.845-20.408 35.68-34.049 5.719-8.825 4.971-16.02-6.529-23.447-24.952-16.107-23.287-42.204 1.777-58.345z m-152.726 97.04a69.826 69.826 0 0 1-69.02-72.341c0.761-38.72 33.014-68.288 73.573-67.453 36.875 0.763 65.215 31.516 64.827 70.36a70.404 70.404 0 0 1-69.38 69.434z" p-id="6993" fill="#ffffff"></path></svg>