<?xml version="1.0" standalone="no"?><!DOCTYPE svg PUBLIC "-//W3C//DTD SVG 1.1//EN" "http://www.w3.org/Graphics/SVG/1.1/DTD/svg11.dtd"><svg t="1606356121296" class="icon" viewBox="0 0 1024 1024" version="1.1" xmlns="http://www.w3.org/2000/svg" p-id="1796" xmlns:xlink="http://www.w3.org/1999/xlink" width="128" height="128"><defs><style type="text/css"></style></defs><path d="M324.266667 0h-307.2c-10.24 0-17.066667 6.826667-17.066667 17.066667v307.2c0 10.24 6.826667 17.066667 17.066667 17.066666h307.2c10.24 0 17.066667-6.826667 17.066666-17.066666v-307.2c0-10.24-6.826667-17.066667-17.066666-17.066667zM307.2 307.2H34.133333v-273.066667h273.066667v273.066667zM324.266667 375.466667h-273.066667c-10.24 0-17.066667 6.826667-17.066667 17.066666s6.826667 17.066667 17.066667 17.066667H307.2v51.2c0 10.24 6.826667 17.066667 17.066667 17.066667s17.066667-6.826667 17.066666-17.066667v-68.266667c0-10.24-6.826667-17.066667-17.066666-17.066666zM17.066667 648.533333h273.066666c10.24 0 17.066667-6.826667 17.066667-17.066666s-6.826667-17.066667-17.066667-17.066667H34.133333v-51.2c0-10.24-6.826667-17.066667-17.066666-17.066667s-17.066667 6.826667-17.066667 17.066667v68.266667c0 10.24 6.826667 17.066667 17.066667 17.066666zM1006.933333 682.666667c-10.24 0-17.066667 6.826667-17.066666 17.066666V989.866667h-85.333334c-10.24 0-17.066667 6.826667-17.066666 17.066666s6.826667 17.066667 17.066666 17.066667h102.4c10.24 0 17.066667-6.826667 17.066667-17.066667v-307.2c0-10.24-6.826667-17.066667-17.066667-17.066666zM477.866667 699.733333c0-10.24-6.826667-17.066667-17.066667-17.066666h-68.266667c-10.24 0-17.066667 6.826667-17.066666 17.066666v273.066667c0 10.24 6.826667 17.066667 17.066666 17.066667s17.066667-6.826667 17.066667-17.066667V716.8h51.2c10.24 0 17.066667-6.826667 17.066667-17.066667zM802.133333 989.866667h-273.066666c-10.24 0-17.066667 6.826667-17.066667 17.066666s6.826667 17.066667 17.066667 17.066667h273.066666c10.24 0 17.066667-6.826667 17.066667-17.066667s-6.826667-17.066667-17.066667-17.066666zM614.4 938.666667c0-10.24-6.826667-17.066667-17.066667-17.066667h-136.533333c-10.24 0-17.066667 6.826667-17.066667 17.066667s6.826667 17.066667 17.066667 17.066666h136.533333c10.24 0 17.066667-6.826667 17.066667-17.066666z" fill="#ffffff" p-id="1797"></path><path d="M802.133333 955.733333h136.533334c10.24 0 17.066667-6.826667 17.066666-17.066666s-6.826667-17.066667-17.066666-17.066667h-136.533334c-10.24 0-17.066667 6.826667-17.066666 17.066667s6.826667 17.066667 17.066666 17.066666zM904.533333 682.666667h-102.4c-10.24 0-17.066667 6.826667-17.066666 17.066666s6.826667 17.066667 17.066666 17.066667h102.4c10.24 0 17.066667-6.826667 17.066667-17.066667s-6.826667-17.066667-17.066667-17.066666zM733.866667 716.8c10.24 0 17.066667-6.826667 17.066666-17.066667s-6.826667-17.066667-17.066666-17.066666h-68.266667c-10.24 0-17.066667 6.826667-17.066667 17.066666s6.826667 17.066667 17.066667 17.066667h68.266667zM529.066667 716.8h68.266666c10.24 0 17.066667-6.826667 17.066667-17.066667s-6.826667-17.066667-17.066667-17.066666h-68.266666c-10.24 0-17.066667 6.826667-17.066667 17.066666s6.826667 17.066667 17.066667 17.066667zM785.066667 836.266667c0 10.24 6.826667 17.066667 17.066666 17.066666s17.066667-6.826667 17.066667-17.066666v-34.133334c0-10.24-6.826667-17.066667-17.066667-17.066666s-17.066667 6.826667-17.066666 17.066666v34.133334zM904.533333 785.066667c-10.24 0-17.066667 6.826667-17.066666 17.066666v34.133334c0 10.24 6.826667 17.066667 17.066666 17.066666s17.066667-6.826667 17.066667-17.066666v-34.133334c0-10.24-6.826667-17.066667-17.066667-17.066666zM477.866667 802.133333v34.133334c0 10.24 6.826667 17.066667 17.066666 17.066666s17.066667-6.826667 17.066667-17.066666v-34.133334c0-10.24-6.826667-17.066667-17.066667-17.066666s-17.066667 6.826667-17.066666 17.066666zM631.466667 853.333333c10.24 0 17.066667-6.826667 17.066666-17.066666v-34.133334c0-10.24-6.826667-17.066667-17.066666-17.066666s-17.066667 6.826667-17.066667 17.066666v34.133334c0 10.24 6.826667 17.066667 17.066667 17.066666zM119.466667 512c10.24 0 17.066667-6.826667 17.066666-17.066667s-6.826667-17.066667-17.066666-17.066666h-68.266667c-10.24 0-17.066667 6.826667-17.066667 17.066666s6.826667 17.066667 17.066667 17.066667h68.266667zM256 546.133333c10.24 0 17.066667-6.826667 17.066667-17.066666s-6.826667-17.066667-17.066667-17.066667h-68.266667c-10.24 0-17.066667 6.826667-17.066666 17.066667s6.826667 17.066667 17.066666 17.066666h68.266667zM1006.933333 580.266667H853.333333v-51.2c0-10.24-6.826667-17.066667-17.066666-17.066667s-17.066667 6.826667-17.066667 17.066667V580.266667h-153.6c-10.24 0-17.066667 6.826667-17.066667 17.066666s6.826667 17.066667 17.066667 17.066667h341.333333c10.24 0 17.066667-6.826667 17.066667-17.066667s-6.826667-17.066667-17.066667-17.066666zM1006.933333 375.466667h-341.333333c-10.24 0-17.066667 6.826667-17.066667 17.066666s6.826667 17.066667 17.066667 17.066667h341.333333c10.24 0 17.066667-6.826667 17.066667-17.066667s-6.826667-17.066667-17.066667-17.066666zM392.533333 34.133333H614.4v256c0 10.24 6.826667 17.066667 17.066667 17.066667s17.066667-6.826667 17.066666-17.066667v-273.066666c0-10.24-6.826667-17.066667-17.066666-17.066667h-238.933334c-10.24 0-17.066667 6.826667-17.066666 17.066667s6.826667 17.066667 17.066666 17.066666zM392.533333 341.333333c10.24 0 17.066667-6.826667 17.066667-17.066666v-204.8c0-10.24-6.826667-17.066667-17.066667-17.066667s-17.066667 6.826667-17.066666 17.066667v204.8c0 10.24 6.826667 17.066667 17.066666 17.066666z" fill="#ffffff" p-id="1798"></path><path d="M512 85.333333c0-10.24-6.826667-17.066667-17.066667-17.066666s-17.066667 6.826667-17.066666 17.066666v68.266667c0 10.24 6.826667 17.066667 17.066666 17.066667s17.066667-6.826667 17.066667-17.066667v-68.266667zM529.066667 307.2c10.24 0 17.066667-6.826667 17.066666-17.066667v-68.266666c0-10.24-6.826667-17.066667-17.066666-17.066667s-17.066667 6.826667-17.066667 17.066667v68.266666c0 10.24 6.826667 17.066667 17.066667 17.066667zM1006.933333 443.733333c-10.24 0-17.066667 6.826667-17.066666 17.066667v34.133333c0 10.24 6.826667 17.066667 17.066666 17.066667s17.066667-6.826667 17.066667-17.066667v-34.133333c0-10.24-6.826667-17.066667-17.066667-17.066667zM665.6 512c10.24 0 17.066667-6.826667 17.066667-17.066667v-34.133333c0-10.24-6.826667-17.066667-17.066667-17.066667s-17.066667 6.826667-17.066667 17.066667v34.133333c0 10.24 6.826667 17.066667 17.066667 17.066667zM750.933333 494.933333v-34.133333c0-10.24-6.826667-17.066667-17.066666-17.066667s-17.066667 6.826667-17.066667 17.066667v34.133333c0 10.24 6.826667 17.066667 17.066667 17.066667s17.066667-6.826667 17.066666-17.066667zM392.533333 648.533333c10.24 0 17.066667-6.826667 17.066667-17.066666V477.866667h85.333333c10.24 0 17.066667-6.826667 17.066667-17.066667s-6.826667-17.066667-17.066667-17.066667H409.6V392.533333c0-10.24-6.826667-17.066667-17.066667-17.066666s-17.066667 6.826667-17.066666 17.066666v238.933334c0 10.24 6.826667 17.066667 17.066666 17.066666z" fill="#ffffff" p-id="1799"></path><path d="M580.266667 563.2c0 10.24 6.826667 17.066667 17.066666 17.066667s17.066667-6.826667 17.066667-17.066667v-204.8c0-10.24-6.826667-17.066667-17.066667-17.066667s-17.066667 6.826667-17.066666 17.066667V512h-85.333334c-10.24 0-17.066667 6.826667-17.066666 17.066667s6.826667 17.066667 17.066666 17.066666H580.266667v17.066667zM85.333333 273.066667h170.666667c10.24 0 17.066667-6.826667 17.066667-17.066667v-170.666667c0-10.24-6.826667-17.066667-17.066667-17.066666h-170.666667c-10.24 0-17.066667 6.826667-17.066666 17.066666v170.666667c0 10.24 6.826667 17.066667 17.066666 17.066667zM1006.933333 0h-307.2c-10.24 0-17.066667 6.826667-17.066666 17.066667v307.2c0 10.24 6.826667 17.066667 17.066666 17.066666h307.2c10.24 0 17.066667-6.826667 17.066667-17.066666v-307.2c0-10.24-6.826667-17.066667-17.066667-17.066667zM989.866667 307.2h-273.066667v-273.066667h273.066667v273.066667z" fill="#ffffff" p-id="1800"></path><path d="M768 273.066667h170.666667c10.24 0 17.066667-6.826667 17.066666-17.066667v-170.666667c0-10.24-6.826667-17.066667-17.066666-17.066666h-170.666667c-10.24 0-17.066667 6.826667-17.066667 17.066666v170.666667c0 10.24 6.826667 17.066667 17.066667 17.066667zM324.266667 682.666667h-307.2c-10.24 0-17.066667 6.826667-17.066667 17.066666v307.2c0 10.24 6.826667 17.066667 17.066667 17.066667h307.2c10.24 0 17.066667-6.826667 17.066666-17.066667v-307.2c0-10.24-6.826667-17.066667-17.066666-17.066666z m-17.066667 307.2H34.133333v-273.066667h273.066667v273.066667z" fill="#ffffff" p-id="1801"></path><path d="M85.333333 955.733333h170.666667c10.24 0 17.066667-6.826667 17.066667-17.066666v-170.666667c0-10.24-6.826667-17.066667-17.066667-17.066667h-170.666667c-10.24 0-17.066667 6.826667-17.066666 17.066667v170.666667c0 10.24 6.826667 17.066667 17.066666 17.066666z" fill="#ffffff" p-id="1802"></path></svg>