<?xml version="1.0" standalone="no"?><!DOCTYPE svg PUBLIC "-//W3C//DTD SVG 1.1//EN" "http://www.w3.org/Graphics/SVG/1.1/DTD/svg11.dtd"><svg t="1607067044419" class="icon" viewBox="0 0 1024 1024" version="1.1" xmlns="http://www.w3.org/2000/svg" p-id="9392" xmlns:xlink="http://www.w3.org/1999/xlink" width="128" height="128"><defs><style type="text/css"></style></defs><path d="M940.733609 156.304965 276.76424 156.304965l-17.407829-76.590822c-2.753798-12.11369-8.63293-22.700961-16.581186-31.129495-11.799546-19.275578-33.044568-32.140396-57.298127-32.140396L67.993133 16.444251c-37.077095 0-67.13427 30.057175-67.13427 67.133263l0 5.595194c0 37.077095 30.057175 67.133263 67.13427 67.133263l53.86771 0 121.63329 535.151033c7.495163 32.979121 38.086988 54.708449 70.843591 52.035201 1.785186 0.140962 3.585475 0.234601 5.406908 0.234601l509.098192 0c37.077095 0 67.13427-30.057175 67.13427-67.133263l0-5.594187c0-37.076088-30.057175-67.13427-67.13427-67.13427L378.490642 603.865087l-19.075211-83.918844 525.373288 0c37.077095 0 67.13427-30.057175 67.13427-67.133263l0-5.595194c0-37.077095-30.057175-67.133263-67.13427-67.133263L327.628448 380.084522l-19.073197-83.916831 632.179365 0c37.076088 0 67.13427-30.058182 67.13427-67.13427l0-5.595194C1007.867879 186.36214 977.810704 156.304965 940.733609 156.304965z" p-id="9393" fill="#ffffff"></path><path d="M364.502154 911.565503c0 61.793815-50.095964 111.886758-111.890786 111.886758S140.72159 973.359318 140.72159 911.565503c0-61.79885 50.09395-111.892799 111.888772-111.892799S364.502154 849.766653 364.502154 911.565503z" p-id="9394" fill="#ffffff"></path><path d="M1007.865866 911.565503c0 61.793815-50.095964 111.886758-111.890786 111.886758-61.795829 0-111.889779-50.092943-111.889779-111.886758 0-61.79885 50.09395-111.892799 111.889779-111.892799C957.769902 799.672703 1007.865866 849.766653 1007.865866 911.565503z" p-id="9395" fill="#ffffff"></path></svg>