<?xml version="1.0" standalone="no"?><!DOCTYPE svg PUBLIC "-//W3C//DTD SVG 1.1//EN" "http://www.w3.org/Graphics/SVG/1.1/DTD/svg11.dtd"><svg t="1607671029491" class="icon" viewBox="0 0 1024 1024" version="1.1" xmlns="http://www.w3.org/2000/svg" p-id="3206" xmlns:xlink="http://www.w3.org/1999/xlink" width="128" height="128"><defs><style type="text/css"></style></defs><path d="M1008.64 513.024H772.096l-6.144 104.448c0 12.288-10.24 22.528-22.528 22.528H280.576c-12.288 0-22.528-10.24-22.528-23.552L256 513.024H16.384l-7.168-6.144c-6.144-5.12-9.216-12.288-9.216-20.48s3.072-15.36 9.216-19.456L491.52 8.192c5.12-5.12 12.288-8.192 20.48-8.192s15.36 3.072 20.48 8.192l483.328 458.752c11.264 10.24 11.264 28.672 0 38.912l-7.168 7.168zM257.024 768c0-34.816 28.672-63.488 63.488-63.488h385.024c34.816 0 63.488 28.672 63.488 63.488 0 34.816-28.672 63.488-63.488 63.488H320.512c-34.816 0-63.488-28.672-63.488-63.488z m62.464 192.512c0-34.816 30.72-63.488 68.608-63.488h245.76c37.888 0 68.608 28.672 68.608 63.488 0 34.816-30.72 63.488-68.608 63.488H389.12c-37.888 0-69.632-28.672-69.632-63.488z" p-id="3207" fill="#ffffff"></path></svg>