<?xml version="1.0" standalone="no"?><!DOCTYPE svg PUBLIC "-//W3C//DTD SVG 1.1//EN" "http://www.w3.org/Graphics/SVG/1.1/DTD/svg11.dtd"><svg t="1606352642014" class="icon" viewBox="0 0 1024 1024" version="1.1" xmlns="http://www.w3.org/2000/svg" p-id="2230" xmlns:xlink="http://www.w3.org/1999/xlink" width="128" height="128"><defs><style type="text/css"></style></defs><path d="M947 480.6l-62.9-62.9c-4.2-4.2-9.8-6.5-15.7-6.5-19.8 0-29.7 23.9-15.7 37.9l47.2 47.2c8.7 8.7 8.7 22.7 0 31.4L797.4 630.2v145c0 12.3-9.9 22.2-22.2 22.2h-145L527.7 899.9c-8.7 8.7-22.7 8.7-31.4 0l-89.5-89.5-13-13h-145c-12.3 0-22.2-9.9-22.2-22.2v-145L124.1 527.7c-8.7-8.7-8.7-22.7 0-31.4l102.5-102.5v-145c0-12.3 9.9-22.2 22.2-22.2h145l102.5-102.5c8.7-8.7 22.7-8.7 31.4 0l89.5 89.5 13 13h145c12.3 0 22.2 9.9 22.2 22.2V277c0 12.3 9.9 22.2 22.2 22.2 12.3 0 22.2-9.9 22.2-22.2v-50.4c0-24.5-19.9-44.4-44.4-44.4H648.6L543.4 77c-17.3-17.3-45.5-17.3-62.8 0L375.4 182.2H226.6c-24.5 0-44.4 19.9-44.4 44.4v148.8L77 480.6c-17.3 17.3-17.3 45.5 0 62.8l105.2 105.2v148.8c0 24.5 19.9 44.4 44.4 44.4h148.8L480.6 947c17.3 17.3 45.5 17.3 62.8 0l105.2-105.2h148.8c24.5 0 44.4-19.9 44.4-44.4V648.6L947 543.4c17.3-17.3 17.3-45.5 0-62.8z m-276.6-95.3L464.5 591.2 353.6 480.3c-8.7-8.7-23-8.7-31.7 0s-8.7 23 0 31.7l126.7 126.7c4.4 4.4 10.1 6.5 15.8 6.5 5.7 0 11.5-2.2 15.8-6.5L702.1 417c8.7-8.7 8.7-23 0-31.7s-23-8.7-31.7 0z" fill="#ffffff" p-id="2231"></path></svg>